<svg xmlns="http://www.w3.org/2000/svg" width="12" height="12" viewBox="0 0 12 12">
  <metadata><?xpacket begin="﻿" id="W5M0MpCehiHzreSzNTczkc9d"?>
<x:xmpmeta xmlns:x="adobe:ns:meta/" x:xmptk="Adobe XMP Core 5.6-c138 79.159824, 2016/09/14-01:09:01        ">
   <rdf:RDF xmlns:rdf="http://www.w3.org/1999/02/22-rdf-syntax-ns#">
      <rdf:Description rdf:about=""/>
   </rdf:RDF>
</x:xmpmeta>
                                                                                                    
                                                                                                    
                                                                                                    
                                                                                                    
                                                                                                    
                                                                                                    
                                                                                                    
                                                                                                    
                                                                                                    
                                                                                                    
                                                                                                    
                                                                                                    
                                                                                                    
                                                                                                    
                                                                                                    
                                                                                                    
                                                                                                    
                                                                                                    
                                                                                                    
                                                                                                    
                           
<?xpacket end="w"?></metadata>
<defs>
    <style>
      .cls-1 {
        fill: #fff;
        fill-rule: evenodd;
      }
    </style>
  </defs>
  <path id="phone" class="cls-1" d="M1341.99,49.47a0.573,0.573,0,0,1-.17.508l-1.69,1.679a1.041,1.041,0,0,1-.3.215,1.248,1.248,0,0,1-.36.114l-0.08.007c-0.04,0-.1.006-0.17,0.006a5.619,5.619,0,0,1-2.1-.49,11.052,11.052,0,0,1-1.77-.972,13.411,13.411,0,0,1-2.11-1.78,14.166,14.166,0,0,1-1.47-1.678,11.129,11.129,0,0,1-.94-1.481,7.929,7.929,0,0,1-.54-1.233,9.6,9.6,0,0,1-.24-0.954,3.2,3.2,0,0,1-.05-0.629c0.01-.152.01-0.238,0.01-0.254a1.324,1.324,0,0,1,.12-0.362,0.9,0.9,0,0,1,.22-0.3l1.68-1.69a0.575,0.575,0,0,1,.41-0.178,0.459,0.459,0,0,1,.29.095,0.83,0.83,0,0,1,.22.236l1.36,2.58a0.619,0.619,0,0,1,.06.445,0.755,0.755,0,0,1-.21.407l-0.63.623a0.3,0.3,0,0,0-.04.083,0.435,0.435,0,0,0-.02.095,2.124,2.124,0,0,0,.23.611,5.632,5.632,0,0,0,.47.744,11.866,11.866,0,0,0,1.92,1.919,5.38,5.38,0,0,0,.74.476,1.938,1.938,0,0,0,.46.185l0.16,0.032a0.376,0.376,0,0,0,.08-0.019,0.208,0.208,0,0,0,.08-0.045l0.73-.737a0.771,0.771,0,0,1,.53-0.2,0.649,0.649,0,0,1,.34.077h0.01l2.46,1.449A0.641,0.641,0,0,1,1341.99,49.47Z" transform="translate(-1330 -40)"/>
</svg>
