<svg xmlns="http://www.w3.org/2000/svg" xmlns:xlink="http://www.w3.org/1999/xlink" width="58" height="60" viewBox="0 0 58 60">
  <metadata><?xpacket begin="﻿" id="W5M0MpCehiHzreSzNTczkc9d"?>
<x:xmpmeta xmlns:x="adobe:ns:meta/" x:xmptk="Adobe XMP Core 5.6-c138 79.159824, 2016/09/14-01:09:01        ">
   <rdf:RDF xmlns:rdf="http://www.w3.org/1999/02/22-rdf-syntax-ns#">
      <rdf:Description rdf:about=""/>
   </rdf:RDF>
</x:xmpmeta>
                                                                                                    
                                                                                                    
                                                                                                    
                                                                                                    
                                                                                                    
                                                                                                    
                                                                                                    
                                                                                                    
                                                                                                    
                                                                                                    
                                                                                                    
                                                                                                    
                                                                                                    
                                                                                                    
                                                                                                    
                                                                                                    
                                                                                                    
                                                                                                    
                                                                                                    
                                                                                                    
                           
<?xpacket end="w"?></metadata>
<defs>
    <style>
      .cls-1 {
        fill-rule: evenodd;
        fill: url(#linear-gradient);
      }
    </style>
    <linearGradient id="linear-gradient" x1="975" y1="1334" x2="1033" y2="1334" gradientUnits="userSpaceOnUse">
      <stop offset="0" stop-color="#fd9a19"/>
      <stop offset="1" stop-color="#f8cf5d"/>
    </linearGradient>
  </defs>
  <path id="icon3" class="cls-1" d="M1031.08,1339.14h-0.89v-8.08a3.821,3.821,0,0,0-1.61-3.11v-1.1a2.9,2.9,0,0,0-2.89-2.89h-0.67l2.56-3.77a2.777,2.777,0,0,0-.73-3.85l-17.37-11.86a2.752,2.752,0,0,0-2.07-.43,2.782,2.782,0,0,0-1.77,1.16l-14.989,22.05h-4.172l1.007-10.21a0.305,0.305,0,0,1,.19-0.26,6.484,6.484,0,0,0,3.164-2.57,0.294,0.294,0,0,1,.284-0.14l6.543,0.65a0.854,0.854,0,0,0,.168-1.7l-6.544-.65a2.007,2.007,0,0,0-1.89.92,4.772,4.772,0,0,1-2.327,1.89,2,2,0,0,0-1.286,1.69l-1.023,10.38h-1.088l1.592-16.15a1.057,1.057,0,0,1,1.156-.95l13.222,1.31a0.86,0.86,0,0,0,.933-0.77,0.846,0.846,0,0,0-.765-0.93l-13.223-1.31a2.765,2.765,0,0,0-3.021,2.48l-1.283,13.02H980.1a2.9,2.9,0,0,0-2.891,2.89v0.75a3.825,3.825,0,0,0-2.212,3.46v29.14a3.8,3.8,0,0,0,3.792,3.8h47.6a3.8,3.8,0,0,0,3.8-3.8v-8.09h0.89a1.92,1.92,0,0,0,1.92-1.92v-9.12A1.929,1.929,0,0,0,1031.08,1339.14Zm-5.39-13.47h0a1.182,1.182,0,0,1,1.18,1.18v0.44a3.636,3.636,0,0,0-.48-0.03h-3.62l1.09-1.59h1.83Zm-18.64-19.5a1.051,1.051,0,0,1,.68-0.44,1.355,1.355,0,0,1,.2-0.02,0.988,0.988,0,0,1,.59.19l17.37,11.86a1.061,1.061,0,0,1,.28,1.47l-5.46,8.03h-1.31l2.68-3.94a2,2,0,0,0,.09-2.12,4.812,4.812,0,0,1-.57-2.95,1.988,1.988,0,0,0-.87-1.92l-9-6.15a1.99,1.99,0,0,0-2.1-.1,4.8,4.8,0,0,1-2.95.55,2.006,2.006,0,0,0-1.93.86l-10.724,15.77h-1.31Zm0.38,14.52a7.039,7.039,0,0,0-7.01,6.57h-4.329l10.069-14.81h0a0.313,0.313,0,0,1,.25-0.13h0.04a6.513,6.513,0,0,0,4.01-.74,0.273,0.273,0,0,1,.31.02l9,6.15a0.293,0.293,0,0,1,.14.28,6.5,6.5,0,0,0,.77,4.01,0.307,0.307,0,0,1-.01.32l-3.34,4.9h-2.89A7.053,7.053,0,0,0,1007.43,1320.69Zm5.3,6.57h-10.6A5.32,5.32,0,0,1,1012.73,1327.26Zm-33.812-.41a1.184,1.184,0,0,1,1.185-1.18h2.016l-0.157,1.59h-3.044v-0.41Zm-2.212,4.21a2.086,2.086,0,0,1,2.086-2.09h47.6a2.089,2.089,0,0,1,2.09,2.09v2.37H976.706v-2.37Zm51.774,29.14a2.1,2.1,0,0,1-2.09,2.09h-47.6a2.092,2.092,0,0,1-2.086-2.09v-2.37h4.6a0.86,0.86,0,0,0,.853-0.86,0.851,0.851,0,0,0-.853-0.85h-4.6v-20.98h51.774v4h-8.11a6.478,6.478,0,0,0-5.82,3.66,0.02,0.02,0,0,0-.01.02l-0.03.06a7.34,7.34,0,0,0-.32.82h0a6.491,6.491,0,0,0,6.18,8.41h8.11v4.01H986.77a0.851,0.851,0,0,0-.853.85,0.859,0.859,0,0,0,.853.86h41.71v2.37Zm2.81-10.01a0.205,0.205,0,0,1-.21.21h-10.71a4.764,4.764,0,0,1-4.19-2.5c-0.04-.07-0.07-0.13-0.11-0.2-0.06-.14-0.12-0.29-0.18-0.43a4.782,4.782,0,0,1,0-3.28c0.06-.15.12-0.29,0.18-0.43,0.04-.07.07-0.14,0.11-0.21a4.783,4.783,0,0,1,4.19-2.5h10.71a0.214,0.214,0,0,1,.21.22v9.12h0Zm-10.72-8.03a3.47,3.47,0,1,0,3.46,3.47A3.47,3.47,0,0,0,1020.57,1342.16Zm0,5.23a1.76,1.76,0,1,1,1.75-1.76A1.763,1.763,0,0,1,1020.57,1347.39Z" transform="translate(-975 -1304)"/>
</svg>
