<svg xmlns="http://www.w3.org/2000/svg" xmlns:xlink="http://www.w3.org/1999/xlink" width="60" height="60" viewBox="0 0 60 60">
  <metadata><?xpacket begin="﻿" id="W5M0MpCehiHzreSzNTczkc9d"?>
<x:xmpmeta xmlns:x="adobe:ns:meta/" x:xmptk="Adobe XMP Core 5.6-c138 79.159824, 2016/09/14-01:09:01        ">
   <rdf:RDF xmlns:rdf="http://www.w3.org/1999/02/22-rdf-syntax-ns#">
      <rdf:Description rdf:about=""/>
   </rdf:RDF>
</x:xmpmeta>
                                                                                                    
                                                                                                    
                                                                                                    
                                                                                                    
                                                                                                    
                                                                                                    
                                                                                                    
                                                                                                    
                                                                                                    
                                                                                                    
                                                                                                    
                                                                                                    
                                                                                                    
                                                                                                    
                                                                                                    
                                                                                                    
                                                                                                    
                                                                                                    
                                                                                                    
                                                                                                    
                           
<?xpacket end="w"?></metadata>
<defs>
    <style>
      .cls-1 {
        fill-rule: evenodd;
        fill: url(#linear-gradient);
      }
    </style>
    <linearGradient id="linear-gradient" x1="1275" y1="1334" x2="1335" y2="1334" gradientUnits="userSpaceOnUse">
      <stop offset="0" stop-color="#fd9a19"/>
      <stop offset="1" stop-color="#f8cf5d"/>
    </linearGradient>
  </defs>
  <path id="icon4" class="cls-1" d="M1332.19,1307.75h-5.63v-2.81a0.937,0.937,0,0,0-.93-0.94h-3.75a0.939,0.939,0,0,0-.94.94v2.81h-13.13v-2.81a0.937,0.937,0,0,0-.93-0.94h-3.75a0.939,0.939,0,0,0-.94.94v2.81h-13.13v-2.81a0.937,0.937,0,0,0-.93-0.94h-3.75a0.939,0.939,0,0,0-.94.94v2.81h-5.63a2.812,2.812,0,0,0-2.81,2.81v51.64a1.836,1.836,0,0,0,1.88,1.8h23.43v-1.87h-23.43v-39.38h56.25v6.56H1335v-18.75A2.812,2.812,0,0,0,1332.19,1307.75Zm-9.38-1.87h1.88v5.62h-1.88v-5.62Zm-18.75,0h1.88v5.62h-1.88v-5.62Zm-18.75,0h1.88v5.62h-1.88v-5.62Zm-8.43,4.68a0.928,0.928,0,0,1,.93-0.93h5.63v1.87h-1.88v1.88h9.38v-1.88h-1.88v-1.87h13.13v1.87h-1.88v1.88h9.38v-1.88h-1.88v-1.87h13.13v1.87h-1.88v1.88h9.38v-1.88h-1.88v-1.87h5.63a0.93,0.93,0,0,1,.94.93v10.32h-9.38v-2.82h2.81v-1.87h-43.12v1.87h2.81v2.82h-9.37v-10.32Zm45,10.32h-33.75v-2.82h33.75v2.82Zm6.56-4.69h1.87v1.87h-1.87v-1.87Zm-48.75,0h1.87v1.87h-1.87v-1.87Zm52.5,15.94h-26.25a2.8,2.8,0,0,0-2.81,2.81v26.25a2.806,2.806,0,0,0,2.81,2.81h26.25a2.812,2.812,0,0,0,2.81-2.81v-26.25A2.806,2.806,0,0,0,1332.19,1332.13Zm-15.94,7.5h5.63v1.87h-5.63v-1.87Zm5.63-5.63v3.75h-5.63V1334h5.63Zm10.31,28.13h-26.25a0.939,0.939,0,0,1-.94-0.94v-22.5h6.56v-1.88H1305v-1.87a0.939,0.939,0,0,1,.94-0.94h8.44v8.44a0.93,0.93,0,0,0,.93.94h7.5a0.939,0.939,0,0,0,.94-0.94V1334h8.44a0.939,0.939,0,0,1,.94.94v1.87h-6.57v1.88h6.57v22.5A0.939,0.939,0,0,1,1332.19,1362.13Zm-19.69-8.44h-3.75a0.939,0.939,0,0,0-.94.94v3.75a0.937,0.937,0,0,0,.94.93h3.75a0.937,0.937,0,0,0,.94-0.93v-3.75A0.939,0.939,0,0,0,1312.5,1353.69Zm-0.94,3.75h-1.87v-1.88h1.87v1.88Zm3.75-3.75h9.38v1.87h-9.38v-1.87Zm0,3.75h5.63v1.87h-5.63v-1.87Zm-27.18-30.94a0.939,0.939,0,0,0-.94-0.94h-5.63a0.937,0.937,0,0,0-.93.94v5.63a0.935,0.935,0,0,0,.93.93h5.63a0.937,0.937,0,0,0,.94-0.93v-5.63Zm-1.88,4.69h-3.75v-3.75h3.75v3.75Zm22.5-.94v-3.75a0.939,0.939,0,0,0-.94-0.94h-5.62a0.939,0.939,0,0,0-.94.94v3.75h1.88v-2.81h3.75v2.81h1.87Zm-10.31-3.75a0.939,0.939,0,0,0-.94-0.94h-5.62a0.939,0.939,0,0,0-.94.94v5.63a0.937,0.937,0,0,0,.94.93h5.62a0.937,0.937,0,0,0,.94-0.93v-5.63Zm-1.88,4.69h-3.75v-3.75h3.75v3.75Zm22.5-.94v-3.75a0.937,0.937,0,0,0-.93-0.94h-5.63a0.939,0.939,0,0,0-.94.94v3.75h1.88v-2.81h3.75v2.81h1.87Zm10.32,0v-3.75a0.939,0.939,0,0,0-.94-0.94h-5.63a0.93,0.93,0,0,0-.93.94v3.75h1.87v-2.81h3.75v2.81h1.88Zm-41.25,8.44a0.939,0.939,0,0,0-.94-0.94h-5.63a0.937,0.937,0,0,0-.93.94v5.62a0.937,0.937,0,0,0,.93.94h5.63a0.939,0.939,0,0,0,.94-0.94v-5.62Zm-3.2.94-2.43,2.42v-2.42h2.43Zm-1.1,3.75,2.42-2.43v2.43h-2.42Zm14.61-4.69a0.939,0.939,0,0,0-.94-0.94h-5.62a0.939,0.939,0,0,0-.94.94v5.62a0.939,0.939,0,0,0,.94.94h5.62a0.939,0.939,0,0,0,.94-0.94v-5.62Zm-3.2.94-2.43,2.42v-2.42h2.43Zm-1.1,3.75,2.42-2.43v2.43h-2.42Zm-6.95,6.56h-5.63a0.937,0.937,0,0,0-.93.94v5.62a0.937,0.937,0,0,0,.93.94h5.63a0.939,0.939,0,0,0,.94-0.94v-5.62A0.939,0.939,0,0,0,1287.19,1349.94Zm-2.27,1.87-2.42,2.43v-2.43h2.42Zm-1.09,3.75,2.42-2.42v2.42h-2.42Zm13.67-5.62h-5.62a0.939,0.939,0,0,0-.94.94v5.62a0.939,0.939,0,0,0,.94.94h5.62a0.939,0.939,0,0,0,.94-0.94v-5.62A0.939,0.939,0,0,0,1297.5,1349.94Zm-0.94,5.62h-3.75v-3.75h3.75v3.75Z" transform="translate(-1275 -1304)"/>
</svg>
