<svg xmlns="http://www.w3.org/2000/svg" xmlns:xlink="http://www.w3.org/1999/xlink" width="60" height="60" viewBox="0 0 60 60">
  <metadata><?xpacket begin="﻿" id="W5M0MpCehiHzreSzNTczkc9d"?>
<x:xmpmeta xmlns:x="adobe:ns:meta/" x:xmptk="Adobe XMP Core 5.6-c138 79.159824, 2016/09/14-01:09:01        ">
   <rdf:RDF xmlns:rdf="http://www.w3.org/1999/02/22-rdf-syntax-ns#">
      <rdf:Description rdf:about=""/>
   </rdf:RDF>
</x:xmpmeta>
                                                                                                    
                                                                                                    
                                                                                                    
                                                                                                    
                                                                                                    
                                                                                                    
                                                                                                    
                                                                                                    
                                                                                                    
                                                                                                    
                                                                                                    
                                                                                                    
                                                                                                    
                                                                                                    
                                                                                                    
                                                                                                    
                                                                                                    
                                                                                                    
                                                                                                    
                                                                                                    
                           
<?xpacket end="w"?></metadata>
<defs>
    <style>
      .cls-1 {
        fill-rule: evenodd;
        fill: url(#linear-gradient);
      }
    </style>
    <linearGradient id="linear-gradient" x1="675" y1="1334" x2="735" y2="1334" gradientUnits="userSpaceOnUse">
      <stop offset="0" stop-color="#fd9a19"/>
      <stop offset="1" stop-color="#f8cf5d"/>
    </linearGradient>
  </defs>
  <path id="icon2" class="cls-1" d="M711.555,1332.1a12.205,12.205,0,1,0,12.208,12.21A12.219,12.219,0,0,0,711.555,1332.1Zm0,22.47a10.265,10.265,0,1,1,10.264-10.26A10.279,10.279,0,0,1,711.555,1354.57Zm0-14.98a4.715,4.715,0,1,0,4.717,4.72A4.719,4.719,0,0,0,711.555,1339.59Zm0,7.49a2.775,2.775,0,1,1,2.773-2.77A2.78,2.78,0,0,1,711.555,1347.08Zm0-9.29a6.844,6.844,0,0,1,1.63.2,1.017,1.017,0,0,0,.243.03,0.97,0.97,0,0,0,.241-1.91,8.342,8.342,0,0,0-2.114-.27A0.975,0.975,0,0,0,711.555,1337.79Zm4.976,0.83a0.982,0.982,0,0,0-.086,1.38,6.515,6.515,0,0,1,0,8.62,0.971,0.971,0,0,0,.086,1.37,0.981,0.981,0,0,0,.643.24,0.963,0.963,0,0,0,.729-0.33,8.456,8.456,0,0,0,0-11.19A0.979,0.979,0,0,0,716.531,1338.62Zm10.942-6.52a3.785,3.785,0,0,0-3.459,2.26,15.851,15.851,0,1,0,2.785,5.24,3.747,3.747,0,0,0,.674.06A3.78,3.78,0,1,0,727.473,1332.1Zm-15.918,26.21a14.005,14.005,0,1,1,14.01-14A14.02,14.02,0,0,1,711.555,1358.31Zm15.918-20.59a1.84,1.84,0,1,1,1.837-1.84A1.843,1.843,0,0,1,727.473,1337.72Zm0.936-9.37h-2.773v-5.58a38.42,38.42,0,0,0-1.7-11.3l-1.479-4.8a3.758,3.758,0,0,0-3.613-2.67H704.266a3.758,3.758,0,0,0-3.614,2.67l-1.479,4.8a38.42,38.42,0,0,0-1.7,11.3v5.58H690.99v-0.9a2.849,2.849,0,0,0-2.845-2.84h-2.809a2.849,2.849,0,0,0-2.844,2.84v0.9h-0.9a6.6,6.6,0,0,0-6.59,6.59v22.47a6.6,6.6,0,0,0,6.59,6.59h46.818a6.6,6.6,0,0,0,6.59-6.59v-22.47A6.6,6.6,0,0,0,728.409,1328.35Zm-11.272-21.31v1.48a1.106,1.106,0,0,1-1.1,1.1h-3.51v-3.68h3.51A1.106,1.106,0,0,1,717.137,1307.04Zm-6.554-1.1v3.68h-3.51a1.106,1.106,0,0,1-1.1-1.1v-1.48a1.106,1.106,0,0,1,1.1-1.1h3.51Zm-9.552,6.11,1.479-4.81a1.833,1.833,0,0,1,1.725-1.3,3.091,3.091,0,0,0-.207,1.1v1.48a3.05,3.05,0,0,0,3.045,3.04H711.4a1.23,1.23,0,0,0,.313,0h4.325a3.05,3.05,0,0,0,3.045-3.04v-1.48a3.091,3.091,0,0,0-.207-1.1,1.833,1.833,0,0,1,1.725,1.3l1.479,4.81a36.33,36.33,0,0,1,1.614,10.72v4.31l-0.45-.9a2.827,2.827,0,0,0-2.545-1.57h-1.616v-8.4a2.852,2.852,0,0,0-2.845-2.85h-9.363a2.852,2.852,0,0,0-2.845,2.85v8.4h-1.616a2.827,2.827,0,0,0-2.544,1.57l-0.451.9v-4.31A36.33,36.33,0,0,1,701.031,1312.05Zm14.305,12.56v-0.9a2.852,2.852,0,0,0-2.845-2.85h-1.873a2.852,2.852,0,0,0-2.845,2.85v0.9h-1.8v-8.4a0.9,0.9,0,0,1,.9-0.9h9.363a0.9,0.9,0,0,1,.9.9v8.4h-1.8Zm-5.619,0v-0.9a0.9,0.9,0,0,1,.9-0.9h1.873a0.9,0.9,0,0,1,.9.9v0.9h-3.675Zm-22.473,37.45v-25.24a1.838,1.838,0,0,1,1.838-1.84h0.9v24.3A2.782,2.782,0,0,1,687.244,1362.06Zm-2.809-34.61a0.906,0.906,0,0,1,.9-0.9h2.809a0.905,0.905,0,0,1,.9.9v0.9h-4.611v-0.9Zm-7.491,29.96v-22.47a4.648,4.648,0,0,1,4.647-4.64h8.392v2.74h-0.9a3.781,3.781,0,0,0-3.781,3.78v25.24h-3.71A4.657,4.657,0,0,1,676.944,1357.41Zm56.111,0a4.656,4.656,0,0,1-4.646,4.65H691.021a4.7,4.7,0,0,0,.905-2.78V1330.3h6.3a2.827,2.827,0,0,0,2.545-1.57l0.837-1.68a0.894,0.894,0,0,1,.806-0.5H720.7a0.893,0.893,0,0,1,.806.5l0.837,1.68a2.827,2.827,0,0,0,2.545,1.57h3.524a4.647,4.647,0,0,1,4.646,4.64v22.47Z" transform="translate(-675 -1304)"/>
</svg>
