<svg xmlns="http://www.w3.org/2000/svg" xmlns:xlink="http://www.w3.org/1999/xlink" width="60" height="59.97" viewBox="0 0 60 59.97">
  <metadata><?xpacket begin="﻿" id="W5M0MpCehiHzreSzNTczkc9d"?>
<x:xmpmeta xmlns:x="adobe:ns:meta/" x:xmptk="Adobe XMP Core 5.6-c138 79.159824, 2016/09/14-01:09:01        ">
   <rdf:RDF xmlns:rdf="http://www.w3.org/1999/02/22-rdf-syntax-ns#">
      <rdf:Description rdf:about=""/>
   </rdf:RDF>
</x:xmpmeta>
                                                                                                    
                                                                                                    
                                                                                                    
                                                                                                    
                                                                                                    
                                                                                                    
                                                                                                    
                                                                                                    
                                                                                                    
                                                                                                    
                                                                                                    
                                                                                                    
                                                                                                    
                                                                                                    
                                                                                                    
                                                                                                    
                                                                                                    
                                                                                                    
                                                                                                    
                                                                                                    
                           
<?xpacket end="w"?></metadata>
<defs>
    <style>
      .cls-1 {
        fill-rule: evenodd;
        fill: url(#linear-gradient);
      }
    </style>
    <linearGradient id="linear-gradient" x1="375" y1="1334.015" x2="435" y2="1334.015" gradientUnits="userSpaceOnUse">
      <stop offset="0" stop-color="#fd9a19"/>
      <stop offset="1" stop-color="#f8cf5d"/>
    </linearGradient>
  </defs>
  <path id="icon1" class="cls-1" d="M430,1313h-7.267c-0.15-.21-0.293-0.41-0.45-0.61a1,1,0,0,0-1.283-.25l-2.8,1.62q-0.462-.495-0.963-0.96l1.62-2.8a0.994,0.994,0,0,0-.244-1.28,21.615,21.615,0,0,0-5.442-3.15,1,1,0,0,0-1.236.43l-1.621,2.79c-0.436-.13-0.874-0.25-1.313-0.34v-3.23a1.008,1.008,0,0,0-.848-0.99,21.482,21.482,0,0,0-6.3,0,1.008,1.008,0,0,0-.848.99v3.23c-0.439.09-.877,0.21-1.314,0.34l-1.621-2.79a1,1,0,0,0-1.236-.43,21.626,21.626,0,0,0-5.441,3.15,0.994,0.994,0,0,0-.244,1.28l1.62,2.8q-0.5.465-.963,0.96l-2.8-1.62a1.008,1.008,0,0,0-1.283.25c-0.157.19-.3,0.4-0.45,0.61H380a5,5,0,0,0-5,5v33a5,5,0,0,0,5,5h16v2h-7a1,1,0,0,0-1,1v4a1,1,0,0,0,1,1h32a1,1,0,0,0,1-1v-4a1,1,0,0,0-1-1h-7v-2h16a5,5,0,0,0,5-5v-33A5,5,0,0,0,430,1313Zm-41.237,1.32,2.746,1.58a0.993,0.993,0,0,0,1.267-.22,14.684,14.684,0,0,1,1.906-1.9,1,1,0,0,0,.224-1.27l-1.589-2.75a19.947,19.947,0,0,1,3.461-2l1.587,2.74a1,1,0,0,0,1.2.44,15.49,15.49,0,0,1,2.6-.68,1.01,1.01,0,0,0,.834-0.99v-3.17a20.562,20.562,0,0,1,4,0v3.17a1.01,1.01,0,0,0,.834.99,15.49,15.49,0,0,1,2.6.68,1,1,0,0,0,1.2-.44l1.587-2.74a19.947,19.947,0,0,1,3.461,2l-1.589,2.75a1.007,1.007,0,0,0,.224,1.27,14.684,14.684,0,0,1,1.906,1.9,0.994,0.994,0,0,0,1.267.22l2.746-1.58a19.45,19.45,0,0,1,2,3.46l-2.737,1.58a1.01,1.01,0,0,0-.44,1.21,14.937,14.937,0,0,1,.685,2.6,1,1,0,0,0,.986.83h3.17c0.033,0.32.033,0.67,0.05,1h-6a13.984,13.984,0,0,0-27.9,0h-6c0.017-.33.017-0.68,0.05-1h3.17a1,1,0,0,0,.986-0.83,15.026,15.026,0,0,1,.685-2.6,1.01,1.01,0,0,0-.439-1.21l-2.737-1.58A19.445,19.445,0,0,1,388.763,1314.32ZM416.949,1325h-23.9A11.99,11.99,0,0,1,416.949,1325ZM420,1360v2H390v-2h30Zm-22-2v-2h14v2H398Zm35-7a3,3,0,0,1-3,3H380a3,3,0,0,1-3-3v-3h56v3h0Zm0-5H377v-28a3,3,0,0,1,3-3h5.942a21.712,21.712,0,0,0-1.371,2.83,0.989,0.989,0,0,0,.428,1.23l2.795,1.63c-0.134.43-.25,0.87-0.347,1.31H384.22a1,1,0,0,0-.988.85,20.3,20.3,0,0,0-.2,2.15H382a1,1,0,0,0,0,2h46a1,1,0,0,0,0-2h-1.036a20.3,20.3,0,0,0-.2-2.15,1,1,0,0,0-.988-0.85h-3.227c-0.1-.44-0.213-0.88-0.347-1.31l2.795-1.63a0.989,0.989,0,0,0,.428-1.23,21.712,21.712,0,0,0-1.371-2.83H430a3,3,0,0,1,3,3v28h0Zm-38.1-10.16h0a7,7,0,1,0-10.791,6.97l0.01,0.01a0.029,0.029,0,0,0,.026.01,6.972,6.972,0,0,0,10.755-6.99h0Zm-5.9-3.74a5.018,5.018,0,0,1,3.653,3.11l-3.653.61v-3.72Zm-5.786,3.45A5,5,0,0,1,387,1332.1v4.6l-2.549,3.82A5.007,5.007,0,0,1,383.214,1335.55ZM388,1342a4.885,4.885,0,0,1-1.884-.38l2.476-3.71,4.39-.73A5,5,0,0,1,388,1342Zm40-12H399a1,1,0,0,0-1,1v12a1,1,0,0,0,1,1h29a1,1,0,0,0,1-1v-12A1,1,0,0,0,428,1330Zm-23,12h-5v-6h5v6Zm0-8h-5v-2h5v2Zm22,8H407v-6h20v6h0Zm0-8H407v-2h20v2h0Zm-17,6h2a1,1,0,0,0,0-2h-2A1,1,0,0,0,410,1340Zm6,0h2a1,1,0,0,0,0-2h-2A1,1,0,0,0,416,1340Zm6,0h2a1,1,0,0,0,0-2h-2A1,1,0,0,0,422,1340Z" transform="translate(-375 -1304.03)"/>
</svg>
