<svg xmlns="http://www.w3.org/2000/svg" xmlns:xlink="http://www.w3.org/1999/xlink" width="14" height="16" viewBox="0 0 14 16">
  <metadata><?xpacket begin="﻿" id="W5M0MpCehiHzreSzNTczkc9d"?>
<x:xmpmeta xmlns:x="adobe:ns:meta/" x:xmptk="Adobe XMP Core 5.6-c138 79.159824, 2016/09/14-01:09:01        ">
   <rdf:RDF xmlns:rdf="http://www.w3.org/1999/02/22-rdf-syntax-ns#">
      <rdf:Description rdf:about=""/>
   </rdf:RDF>
</x:xmpmeta>
                                                                                                    
                                                                                                    
                                                                                                    
                                                                                                    
                                                                                                    
                                                                                                    
                                                                                                    
                                                                                                    
                                                                                                    
                                                                                                    
                                                                                                    
                                                                                                    
                                                                                                    
                                                                                                    
                                                                                                    
                                                                                                    
                                                                                                    
                                                                                                    
                                                                                                    
                                                                                                    
                           
<?xpacket end="w"?></metadata>
<defs>
    <style>
      .cls-1 {
        fill-rule: evenodd;
        fill: url(#linear-gradient);
      }
    </style>
    <linearGradient id="linear-gradient" x1="231" y1="1281" x2="231" y2="1265" gradientUnits="userSpaceOnUse">
      <stop offset="0" stop-color="#fd9a19"/>
      <stop offset="1" stop-color="#f8cf5d"/>
    </linearGradient>
  </defs>
  <path id="up" class="cls-1" d="M232.322,1280.1l-0.006.03v-10.71l3.553,3.36a0.955,0.955,0,0,0,1.31,0l0.552-.52a0.835,0.835,0,0,0,.269-0.62,0.864,0.864,0,0,0-.269-0.62l-6.077-5.77a0.979,0.979,0,0,0-1.307,0l-6.078,5.77a0.864,0.864,0,0,0-.269.62,0.835,0.835,0,0,0,.269.62l0.552,0.52a0.919,0.919,0,0,0,.651.26,0.892,0.892,0,0,0,.639-0.26l3.573-3.4v10.73a0.93,0.93,0,0,0,.946.89h0.78A0.914,0.914,0,0,0,232.322,1280.1Z" transform="translate(-224 -1265)"/>
</svg>
