<svg fill="none" xmlns="http://www.w3.org/2000/svg">
  <symbol preserveAspectRatio="xMidYMid meet" viewBox="0 0 22 22" id="whatsapp">
    <path fill-rule="evenodd" clip-rule="evenodd" d="M18.7947 3.19692C17.7778 2.17945 16.5696 1.37319 15.2398 0.824534C13.9099 0.27588 12.4847 -0.00432457 11.0461 5.04524e-05C5.00892 5.04524e-05 0.0942855 4.89013 0.0918302 10.9018C0.0891594 12.8161 0.593751 14.6968 1.55424 16.3527L0 22L5.80691 20.4841C7.41429 21.3548 9.21363 21.8106 11.0417 21.81H11.0461C17.0829 21.81 21.997 16.9194 22 10.9082C22.0036 9.47454 21.7221 8.05448 21.1719 6.73063C20.6216 5.40678 19.8136 4.20558 18.7947 3.19692ZM11.0461 19.9699H11.0422C9.41254 19.9704 7.81249 19.5343 6.40847 18.7069L6.07602 18.5105L2.63017 19.4101L3.54995 16.0664L3.33339 15.7226C2.42215 14.28 1.93936 12.6082 1.9412 10.9018C1.9412 5.90615 6.0274 1.84156 11.0496 1.84156C13.4588 1.83726 15.771 2.79008 17.4777 4.49046C19.1845 6.19083 20.1459 8.4995 20.1506 10.9087C20.1486 15.9048 16.0644 19.9699 11.0461 19.9699ZM16.0398 13.1838C15.7663 13.0473 14.4193 12.3883 14.1698 12.2974C13.9204 12.2066 13.7362 12.1609 13.554 12.434C13.3719 12.707 12.8469 13.3179 12.6873 13.502C12.5277 13.6862 12.3681 13.7063 12.0946 13.5698C11.8211 13.4333 10.9386 13.146 9.89311 12.2179C9.07941 11.4955 8.53039 10.6037 8.37079 10.3312C8.21119 10.0586 8.3536 9.91083 8.49061 9.7753C8.61387 9.65302 8.76414 9.45708 8.90115 9.29798C9.03816 9.13887 9.08383 9.02494 9.17467 8.84324C9.26552 8.66155 9.22034 8.50244 9.15208 8.36642C9.08383 8.23039 8.53628 6.88928 8.30842 6.3437C8.08597 5.81236 7.86057 5.88455 7.69262 5.8762C7.53302 5.86834 7.34887 5.86638 7.16767 5.86638C7.02914 5.86998 6.89285 5.90211 6.76729 5.96074C6.64174 6.01938 6.52962 6.10327 6.43794 6.20718C6.187 6.48021 5.47986 7.14021 5.47986 8.47985C5.47986 9.81949 6.462 11.1159 6.59753 11.2976C6.73307 11.4793 8.52744 14.2308 11.273 15.4108C11.7828 15.6292 12.3038 15.8206 12.8336 15.9844C13.4892 16.1916 14.0859 16.1626 14.5573 16.0924C15.0832 16.0143 16.1778 15.4334 16.4052 14.797C16.6326 14.1606 16.6331 13.6155 16.5648 13.502C16.4965 13.3886 16.3139 13.3198 16.0398 13.1838Z" fill="white"/>
  </symbol>
  <symbol preserveAspectRatio="xMidYMid meet" viewBox="0 0 17 14" id="telegram">
    <path d="M6.65655 9.1474L6.38857 12.9166C6.77198 12.9166 6.93803 12.7519 7.13716 12.5541L8.93473 10.8362L12.6595 13.5639C13.3426 13.9446 13.8239 13.7441 14.0082 12.9355L16.4531 1.47944L16.4537 1.47877C16.6704 0.468973 16.0886 0.0740996 15.423 0.321823L1.05189 5.82372C0.0710943 6.20442 0.0859446 6.75116 0.885164 6.99889L4.55928 8.14166L13.0935 2.80176C13.4951 2.53581 13.8603 2.68296 13.5599 2.94891L6.65655 9.1474Z" fill="white"/>
  </symbol>
  <symbol preserveAspectRatio="xMidYMid meet" viewBox="0 0 24 14" id="vk">
    <path d="M19.7937 8.27675C19.4227 7.80819 19.5288 7.59973 19.7937 7.18089C19.7985 7.17611 22.8614 2.94374 23.1769 1.50841L23.1788 1.50746C23.3357 0.984388 23.1788 0.599976 22.4205 0.599976H19.9113C19.2726 0.599976 18.978 0.929882 18.8203 1.29899C18.8203 1.29899 17.5427 4.35708 15.7354 6.33939C15.1521 6.91218 14.8824 7.09578 14.564 7.09578C14.4072 7.09578 14.1633 6.91218 14.1633 6.38911V1.50746C14.1633 0.880157 13.9845 0.599976 13.4557 0.599976H9.51021C9.10954 0.599976 8.87143 0.892588 8.87143 1.16512C8.87143 1.75991 9.77509 1.89665 9.8688 3.57009V7.20097C9.8688 7.99657 9.72441 8.14288 9.40406 8.14288C8.55109 8.14288 6.48081 5.07236 5.25394 1.55814C5.00627 0.876332 4.76434 0.600932 4.12078 0.600932H1.61062C0.894394 0.600932 0.75 0.930838 0.75 1.29995C0.75 1.95211 1.60297 5.19476 4.71652 9.47876C6.79159 12.403 9.71389 13.9875 12.3723 13.9875C13.9702 13.9875 14.1652 13.6356 14.1652 13.0303C14.1652 10.2361 14.0208 9.97218 14.8212 9.97218C15.1922 9.97218 15.831 10.1558 17.3228 11.5663C19.0278 13.2387 19.3079 13.9875 20.2623 13.9875H22.7715C23.4868 13.9875 23.8492 13.6356 23.6407 12.9413C23.1635 11.4811 19.9391 8.47756 19.7937 8.27675Z" fill="white"/>
  </symbol>
  <symbol preserveAspectRatio="xMidYMid meet" viewBox="0 0 19 20" id="viber">
    <path d="M9.48115 0.549988C8.91058 0.549988 8.91058 1.43919 9.48115 1.4466C13.9079 1.48069 17.5536 4.56622 17.5936 10.226C17.5936 10.8232 18.468 10.8158 18.4606 10.2186H18.4591C18.4117 4.12013 14.431 0.584074 9.48115 0.549988Z" fill="white"/>
    <path d="M15.3043 9.28782C15.291 9.87766 16.1639 9.90582 16.1713 9.30857C16.2439 5.9459 14.1706 3.17604 10.2744 2.88409C9.7038 2.84259 9.64451 3.7392 10.2136 3.7807C13.5926 4.03709 15.3725 6.34308 15.3043 9.28782Z" fill="white"/>
    <path d="M14.3705 13.1136C13.6383 12.6898 12.8929 12.9535 12.5846 13.37L11.94 14.2044C11.6124 14.6282 11.0004 14.5719 11.0004 14.5719C6.53362 13.3907 5.33913 8.7165 5.33913 8.7165C5.33913 8.7165 5.2843 8.08368 5.69333 7.7443L6.49954 7.0774C6.90264 6.75729 7.15755 5.98665 6.74703 5.22934C5.65035 3.24791 4.91379 2.5647 4.53885 2.04007C4.14464 1.54657 3.55183 1.43541 2.93532 1.76887H2.92198C1.64005 2.51876 0.236594 3.92222 0.685641 5.36717C1.45184 6.89067 2.85974 11.7472 7.34724 15.4166C9.45613 17.1521 12.7936 18.9305 14.2104 19.341L14.2237 19.3617C15.6198 19.8271 16.9773 18.3688 17.702 17.0483V17.0379C18.0236 16.3992 17.9169 15.7945 17.4471 15.3989C16.6142 14.5867 15.3575 13.6901 14.3705 13.1136Z" fill="white"/>
    <path d="M10.8853 6.19236C12.3095 6.27535 13.0001 7.01932 13.0742 8.54727C13.1009 9.14451 13.9679 9.10302 13.9412 8.50577C13.8463 6.51099 12.806 5.39949 10.9327 5.29575C10.3621 5.26166 10.3088 6.15827 10.8853 6.19236Z" fill="white"/>
  </symbol>
</svg>
